<svg width="1024" height="1024" viewBox="0 0 1024 1024" fill="none" xmlns="http://www.w3.org/2000/svg">
<path d="M309.9 209.4C325.2 209.4 339.3 203.5 353.4 197.6C398.1 176.4 434.5 184.7 473.3 201.2C483.9 204.7 501.6 205.9 501.6 205.9C509.8 207.1 518.1 209.4 525.1 209.4C525.1 214.1 520.4 215.3 520.4 219.9C528.6 225.8 539.2 223.5 549.8 223.5C578 223.5 606.3 202.3 634.5 218.8C639.2 221.2 645.1 228.2 645.1 232.9C614.6 231.7 601.6 271.7 573.4 278.8C542.7 294 511 295.2 471 284.6C471 289.3 471 292.8 473.3 298.7C439.2 284.6 411 311.6 362.7 302.2C329.7 297.5 316.8 281 309.8 281C288.6 281 267.4 278.7 253.4 261V260C273.3 241.1 294.6 234.1 318 230.5C320.4 223.5 302.7 209.4 309.9 209.4ZM992 759.7C987.2 768 975.6 768 970.8 776.2C973.1 790.4 968.5 803.3 967.3 817.3C966.5 821.7 962.6 822.1 962.6 822.1L906.1 831.5C901.5 832.3 893.9 825.6 899.7 817.7C915 800 931.3 787.9 941.9 769C940.2 762.4 936.9 755.5 932.2 747.9C911.9 715.5 893.2 685.6 874.3 652.7C872.2 648.9 866 648 866 648C820.2 639.7 774.3 628 729.6 613.9C727.4 613.2 727.2 616.3 727.2 616.3C728.4 625.7 729.3 636.3 733.8 640.9C739.6 647 758.2 649.3 762.8 649.1C767.5 649 775.5 646.7 779 649.2C777.8 661 770.8 669.2 761.3 675C763.7 683.2 774.2 682.1 776.6 689.2C771.9 692.7 764.8 695 764.8 702C767.1 704.4 769.6 705.5 771.9 709.1C764.8 716.2 755.4 719.7 749.6 726.8L752 770.4C752 770.4 752 771.7 751.4 772.4C750.4 773.5 748.4 773.9 748.4 773.9L689.1 787.8C686.6 788.4 684.4 785.4 684 783.6C684 783.6 683.3 780.9 685 778.6L722.7 722.1C725 709.2 715.6 701 709.6 690.4C696.7 673.9 682.6 661 667.3 651.6C663.8 646.8 663.8 639.8 662.6 633.9C656.7 625.6 654.6 617.8 651 608.3C649.4 604.8 646.1 606.2 642.8 609.3C634.6 617.5 625 626.8 621.5 638.5C621.5 644.4 626.5 648.8 632.1 651.5C636.3 653.2 641.5 655 647.3 652.7C647.3 652.7 649.7 652.1 648.5 655C643.8 665.6 639.1 668 633.3 672.7C639.1 676.2 647.3 668 653.2 671.5C648.5 678.5 640.4 683.2 641.5 692.7C646.2 697.3 653.2 698.6 654.4 705.6C641.5 705.6 634.4 720.9 624.9 728C622.6 745.6 622.6 763.3 621.4 780.9C620.2 784.4 616.5 786.2 612 786.8L548.5 789.1C545 789.1 545 784.4 547.3 782L592 728C593.2 724.4 592 720.8 590.8 718.6C570.9 692.7 553.3 665.7 540.4 636.2C531 637.4 521.6 642.2 516.8 650.4C519.2 658.6 529.7 661 538 661C538 670.4 529.8 681 520.4 684.5C520.4 684.5 515.5 686 514.5 689.2C515.7 691.5 518.1 692.7 520.4 692.7C511 705.6 495.7 708 481.6 711.5C480.4 715 483.9 715 486.3 715H494.6C494.6 720.8 488.5 726.6 484 729.3C476.9 733.5 466.4 731.5 458.1 733.8C462.8 742.1 472.3 746.7 471 757.4C461.6 758.5 451 762.1 440.4 760.9C435.7 765.7 438 772.7 435.7 777.4C429.8 789.2 421.9 806.5 413.4 816.5L366.3 778.6C369.8 766.8 380.4 765.7 388.6 758.5C399.2 749.2 413.3 743.3 423.9 730.3C428.6 698.5 438.9 670.4 446 639.8C447.8 630.6 437.6 632.7 437.6 632.7C414.1 636.2 388.1 637.5 363.4 632.8C359.8 632.8 357.1 636.7 356.1 640.5C354.3 647.8 351 657.3 352.2 665.6C358.1 669.2 366.4 669.2 371.1 675C367.6 690.3 352.2 698.5 342.8 705.6C344 715.1 353.4 720.9 361.6 723.3C359.2 728 354.9 729.5 351 730.3C344.1 731.8 336.8 731.5 332.2 736.2C340.4 743.3 352.2 749.1 355.6 760.8C351 763.2 346.3 763.2 341.6 765.6C335.7 769.1 328.6 770.3 320.4 772.6C312.2 785.5 307.6 804.7 297.9 816.6C285 804.9 267.5 793.8 256.9 779.7C256.9 772.6 263.7 769.8 267.6 766.6C277 759.1 292.7 752.3 294.6 737.3C297.4 714.8 283.9 702 281.6 682.1C279.2 669.2 274.5 656.3 275.7 642.2C259.3 635 247.4 629.2 231 621C231 621 227.5 618.9 227.5 622.2V646.8C240.5 645.6 254.6 650.4 262.9 661C252.3 665.7 241.7 679.8 238.2 691.5C244.1 698.6 254.9 695.2 260.5 703.9C266.5 713.1 254.4 714 249.7 720.7C247.2 724.2 245.2 726.8 245.2 732.7C245.2 738.5 257 739.7 254.6 746.8C248.7 755 240.5 762.1 234.6 768C235.8 776.2 246.4 777.4 245.2 784.4C227.5 795 221.7 818.5 201.7 822C194.7 842 193.7 865.4 189.1 885C187.6 891.6 179.7 897.3 174.4 897.5C153.2 898.3 136.9 897.4 118.1 897.4C134.6 863.8 179 836.9 172.2 796C154.5 690.3 123.4 629.3 105.9 536.9C99.1002 501.5 98.4002 465.5 109.6 435.8C112.6 450.3 130.1 463.8 144.2 463.3C150.1 443.4 162.3 410.3 170.5 409.1C179.9 407.9 212.4 424.7 212.4 424.7C221.8 415.8 224.3 402.7 225.1 392.2C235.7 396.9 246.5 399.2 260.7 395.7C285.3 388.6 288.8 381 297.1 371.6C307.7 406.8 288.9 429.2 288.9 438.6C299.5 436.3 310.2 427 316 422.1C322.3 416.7 337.7 399.3 337.7 399.3C341.5 395.5 344.1 404.9 344.4 410.3C345.6 426.8 346.1 441.8 337.1 455.1C336.3 456.3 337.1 458.6 339.5 458.6C358.4 458.6 373.7 416.2 386.6 410.3C386.6 410.3 387.7 409.8 387.8 410.4C388.9 426.9 388.9 441 397.2 450.4C402.7 441 411.2 429.5 416.3 424.4C418.6 422 425.1 415.7 425.5 422.1C426.7 434.3 430.1 449.2 440.7 450.4C451.3 451.6 453.2 440.5 456.7 433.5C462 423.8 465.4 421 470 421C471.2 436.3 477 457.5 490 459.8C497.1 461 490.3 448.5 490.6 440.4C491.1 430.9 492.4 422.2 504.1 418.7C508.8 431.6 512.7 439.4 522.9 449.2C524.6 451 529.1 451.6 528.5 445.8C527.4 434 525.7 420.4 534.8 411.3C539.2 406.8 537.6 415.6 541.7 421C547.3 428.3 553.5 431 561.7 430.4C567 429.9 568.4 426.5 567.1 423.2C562.4 411.5 555.8 403.3 554.7 391.5C552.3 373.8 560.5 358.6 574.7 351.6C585.2 345.7 600.6 344.5 610 352.7C615.9 357.9 620.7 365.4 620.7 374C620.7 381 617.5 388 611.2 391.5C606.6 394 600.4 394 595.7 390.4C591.3 387.2 587.7 380.9 584.1 378.6C580.6 386.8 586.5 396.2 591.1 402.1C600.9 412.9 613.3 410.3 618.3 407.1C648.8 384.8 642.9 362.1 661.8 316.2C677.1 279.7 705.3 244.5 748.8 244.5C777.1 244.5 800.6 255 817 285.7C831.2 310.4 832.4 348 819.4 373.9C817 379.8 811 387.2 805.1 392C798.7 397.1 797.6 402.2 800.6 404.5C810 411.5 812.3 412.8 819.4 421C848.8 456.3 861.7 497.4 878.3 538.6C882.5 548.5 886.7 563 895.9 568C908.9 575.1 923 582.2 937.1 586.9C940.6 592.7 928.9 598.6 936 604.5C941.8 606.9 951.2 609.2 957.1 605.7C959.5 623.4 939.5 628.1 941.8 633.9C946.5 637.3 953.6 638.5 958.3 640.8C961.8 642.5 965.1 645.8 966.6 650.3C959.5 652.7 952.4 655 952.4 663.3C958.3 668 963 672.7 967.7 678.5C967.7 693.8 945.7 686.9 953.4 711.1C956.4 720.8 959.6 736.3 973.8 744C982.3 749 987.3 753.8 992 759.7ZM793.2 314C786.2 296.3 762.7 281 745 282.2C723.9 283.4 709.6 295.2 695.6 321C683.9 343.4 668.5 390.4 641.5 418.7C641.5 418.7 640.9 419.2 640 420.1C639.2 420.9 638.9 422.1 640.3 422.1C653.1 422.1 667.3 413.9 679.1 405.6C695.6 395 709.6 376.2 720.3 359.8C727.4 366.9 735.6 372.7 745 375.1C760.3 378.6 778 375.1 787.4 361C795.6 349.3 800.4 329.3 793.2 314ZM124.7 386.5C121.8 394.8 107.6 443.2 69.9002 449.3C71.2002 445.9 73.4002 439.1 73.4002 439.1C75.5002 433 74.6002 428.1 74.6002 428.1C73.4002 407.3 77.0002 385.7 85.2002 366.9C85.2002 365.7 84.1002 365.7 82.9002 365.7C72.2002 377.6 57.0002 383.4 44.0002 377.6C73.4002 357.6 49.9002 321.1 65.2002 294C66.4002 291.7 67.6002 290.4 67.6002 288.1C61.7002 284.6 55.8002 285.8 49.9002 283.4C42.8002 281.1 35.7002 276.4 32.2002 268.1C51.0002 259.9 62.8002 243.5 72.1002 223.4C80.4002 211.6 92.1002 201.1 105.1 201.1C107.5 201.1 108.6 199.9 107.5 196.4C105.1 180 101.6 154 98.1002 125.8L162.8 174C168.7 174 172.2 174 175.7 172.8C215.7 158.7 248.7 143.4 291 128.1C293.3 127.1 296.7 130.1 298.1 136.3L309.9 189.3C312.3 201.1 299.3 198.7 294.6 205.7C291 211.6 293.3 224.5 285.2 224.5C281.7 221 281.7 213.9 276.9 213.9C272.2 219.8 275.8 231.6 267.5 234C264 230.4 264 224.6 258.1 223.4L226.3 241C226.3 241 224.6 242.1 226.3 245.7L249.9 292.7C264 298.6 272.3 299.8 285.2 303.3C289.9 303.3 292.3 293.9 298.1 297.4C300.7 306.5 295.9 325.1 295.5 326.8C295.5 326.8 294.1 332.3 290.7 331.5C288.6 331.1 239.3 320.9 239.3 320.9C229.9 316.2 225.2 303.3 215.8 298.6L214.6 299.8C232.2 322.1 234.6 369.2 272.3 366.8C271.1 371.5 264.7 377.3 260.5 379.7C248.7 386.7 227.5 382.1 220.5 377.4C214.6 372.6 202.8 359.7 202.8 359.7C202.8 359.7 202.3 358.9 201.8 359.1C201.7 359.2 201.4 359.3 201.7 359.7C201.7 359.7 217 387.9 208.8 407.9C194.7 402 180.5 395 166.4 393.8C151.1 405.5 141.7 426.8 137.2 443.7C133.1 444.1 128.8 440.7 126.4 437.3C115.6 422.1 126.4 386.7 126.4 386.7C126.4 386.7 126.8 385.5 126.1 385.2C125.5 385.2 125.1 385.3 124.7 386.5ZM180.4 210.5C180.4 218.7 186.3 224.6 193.4 224.6C201.6 224.6 207.5 218.7 207.5 210.5C207.5 202.3 201.6 196.4 193.4 196.4C186.3 196.4 180.4 202.3 180.4 210.5Z" fill="black"/>
</svg>
