<svg width="24" height="24" viewBox="0 0 24 24" fill="none" xmlns="http://www.w3.org/2000/svg">
    <g clip-path="url(#jwpea1b6ca)">
        <path d="M3.75 12.75h14.69l-5.47 5.47c-.29.29-.29.77 0 1.06.29.29.77.29 1.06 0l6.75-6.75c.07-.07.12-.15.16-.24.08-.18.08-.39 0-.57a.776.776 0 0 0-.16-.24l-6.75-6.75a.742.742 0 0 0-.53-.22c-.19 0-.38.07-.53.22-.29.29-.29.77 0 1.06l5.47 5.47H3.75c-.41 0-.75.34-.75.75s.34.75.75.75v-.01z" fill="#FFD300"/>
    </g>
    <defs>
        <clipPath id="jwpea1b6ca">
            <path fill="#fff" d="M0 0h24v24H0z"/>
        </clipPath>
    </defs>
</svg>
