<svg width="32" height="32" viewBox="0 0 32 32" fill="none" xmlns="http://www.w3.org/2000/svg">
    <g clip-path="url(#tjgn25plua)">
        <path d="M5 15h19.59L17.3 7.71a.996.996 0 1 1 1.41-1.41l9 9a1 1 0 0 1 0 1.42l-9 9c-.2.2-.45.29-.71.29-.26 0-.51-.1-.71-.29a.996.996 0 0 1 0-1.41l7.29-7.29H4.99c-.55 0-1-.45-1-1s.45-1 1-1L5 15z" fill="#0958A5"/>
    </g>
    <defs>
        <clipPath id="tjgn25plua">
            <path fill="#fff" transform="matrix(1 0 0 -1 0 32)" d="M0 0h32v32H0z"/>
        </clipPath>
    </defs>
</svg>
