<svg width="24" height="24" viewBox="0 0 24 24" fill="none" xmlns="http://www.w3.org/2000/svg">
    <g clip-path="url(#h9i6ct9hya)">
        <path fill-rule="evenodd" clip-rule="evenodd" d="M14.503 2.684A4.355 4.355 0 0 1 17.505 1.5c1.126 0 2.206.426 3.002 1.184a3.949 3.949 0 0 1 1.243 2.86c0 1.07-.447 2.098-1.241 2.857-.001 0-.002 0-.002.002L9.957 18.59c-.48.444-1.124.69-1.793.686a2.611 2.611 0 0 1-1.782-.71 2.37 2.37 0 0 1-.746-1.697 2.366 2.366 0 0 1 .719-1.708l.004-.004 8.843-8.562a.878.878 0 0 1 1.2-.01.78.78 0 0 1 .009 1.143l-8.84 8.558-.001.002a.79.79 0 0 0-.239.569.791.791 0 0 0 .25.566c.157.15.371.236.595.238a.874.874 0 0 0 .593-.225L19.304 7.264l.004-.004a2.37 2.37 0 0 0 .746-1.717 2.37 2.37 0 0 0-.746-1.716 2.615 2.615 0 0 0-1.803-.712c-.675 0-1.323.256-1.8.71L5.164 14.002a3.949 3.949 0 0 0-1.22 2.854A3.95 3.95 0 0 0 5.19 19.7a4.357 4.357 0 0 0 2.986 1.185 4.36 4.36 0 0 0 2.994-1.16l.002-.002 8.706-8.28a.878.878 0 0 1 1.2 0c.33.316.33.828-.002 1.143l-8.715 8.289A6.1 6.1 0 0 1 8.169 22.5a6.096 6.096 0 0 1-4.178-1.658c-1.109-1.056-1.735-2.486-1.741-3.98a5.524 5.524 0 0 1 1.707-3.993L14.503 2.684z" fill="#666"/>
    </g>
    <defs>
        <clipPath id="h9i6ct9hya">
            <path fill="#fff" d="M0 0h24v24H0z"/>
        </clipPath>
    </defs>
</svg>

