<svg width="24" height="24" viewBox="0 0 24 24" fill="none" xmlns="http://www.w3.org/2000/svg">
    <path fill-rule="evenodd" clip-rule="evenodd" d="M8.25 2.25a.75.75 0 0 0-1.5 0V3A3.75 3.75 0 0 0 3 6.75v10.5A3.75 3.75 0 0 0 6.75 21h10.5A3.75 3.75 0 0 0 21 17.25V6.75A3.75 3.75 0 0 0 17.25 3v-.75a.75.75 0 0 0-1.5 0V3h-7.5v-.75zM6.75 4.5v.75a.75.75 0 0 0 1.5 0V4.5h7.5v.75a.75.75 0 0 0 1.5 0V4.5a2.25 2.25 0 0 1 2.25 2.25v.75h-15v-.75A2.25 2.25 0 0 1 6.75 4.5zM4.5 9v8.25a2.25 2.25 0 0 0 2.25 2.25h10.5a2.25 2.25 0 0 0 2.25-2.25V9h-15z" fill="#222"/>
</svg>
