<svg width="21" height="20" viewBox="0 0 21 20" fill="none" xmlns="http://www.w3.org/2000/svg">
    <path d="M8.5 11.375a.5.5 0 0 0 0 1H10v1.5a.5.5 0 0 0 1 0v-1.5h1.5a.5.5 0 0 0 0-1H11v-1.5a.5.5 0 0 0-1 0v1.5H8.5z" fill="#FAFAFA"/>
    <path fill-rule="evenodd" clip-rule="evenodd" d="M7.25 1.875a.5.5 0 0 0-1 0v.77a3.5 3.5 0 0 0-3.125 3.48v7.75a3.5 3.5 0 0 0 3.5 3.5h7.75a3.5 3.5 0 0 0 3.5-3.5v-7.75a3.5 3.5 0 0 0-3.125-3.48v-.77a.5.5 0 0 0-1 0v.75h-6.5v-.75zm-1 1.778v.722a.5.5 0 0 0 1 0v-.75h6.5v.75a.5.5 0 0 0 1 0v-.722a2.5 2.5 0 0 1 2.125 2.472v.25H4.125v-.25A2.5 2.5 0 0 1 6.25 3.653zM4.125 7.375v6.5a2.5 2.5 0 0 0 2.5 2.5h7.75a2.5 2.5 0 0 0 2.5-2.5v-6.5H4.125z" fill="#FAFAFA"/>
</svg>
