<svg width="24" height="24" viewBox="0 0 24 24" fill="none" xmlns="http://www.w3.org/2000/svg">
    <path d="M8.25 14.25A.75.75 0 0 1 9 13.5h2.25v-2.25a.75.75 0 0 1 1.5 0v2.25H15a.75.75 0 0 1 0 1.5h-2.25v2.25a.75.75 0 0 1-1.5 0V15H9a.75.75 0 0 1-.75-.75z" fill="#fff"/>
    <path fill-rule="evenodd" clip-rule="evenodd" d="M4.5 3A1.5 1.5 0 0 0 3 4.5v15A1.5 1.5 0 0 0 4.5 21h15a1.5 1.5 0 0 0 1.5-1.5v-15A1.5 1.5 0 0 0 19.5 3h-2.25v-.75a.75.75 0 0 0-1.5 0V3h-7.5v-.75a.75.75 0 0 0-1.5 0V3H4.5zm15 1.5h-2.25v.75a.75.75 0 0 1-1.5 0V4.5h-7.5v.75a.75.75 0 0 1-1.5 0V4.5H4.5v3h15v-3zm0 15h-15V9h15v10.5z" fill="#fff"/>
</svg>
