<svg width="24" height="24" viewBox="0 0 24 24" fill="none" xmlns="http://www.w3.org/2000/svg">
    <g clip-path="url(#oj8p63fmla)" fill-rule="evenodd" clip-rule="evenodd" fill="#0E8345">
        <path d="M16.28 9.22a.75.75 0 0 1 0 1.06l-5.25 5.25a.75.75 0 0 1-1.06 0l-2.25-2.25a.75.75 0 1 1 1.06-1.06l1.72 1.72 4.72-4.72a.75.75 0 0 1 1.06 0z"/>
        <path d="M12.225 21a9 9 0 1 0 0-18 9 9 0 0 0 0 18zm0 1.5c5.799 0 10.5-4.701 10.5-10.5s-4.701-10.5-10.5-10.5c-5.8 0-10.5 4.701-10.5 10.5s4.7 10.5 10.5 10.5z"/>
    </g>
    <defs>
        <clipPath id="oj8p63fmla">
            <path fill="#fff" d="M0 0h24v24H0z"/>
        </clipPath>
    </defs>
</svg>
