<svg width="24" height="24" viewBox="0 0 24 24" fill="none" xmlns="http://www.w3.org/2000/svg">
    <path fill-rule="evenodd" clip-rule="evenodd" d="M12 3.75a8.25 8.25 0 1 0 0 16.5 8.25 8.25 0 0 0 0-16.5zM2.25 12c0-5.385 4.365-9.75 9.75-9.75s9.75 4.365 9.75 9.75-4.365 9.75-9.75 9.75S2.25 17.385 2.25 12z" fill="#0958A5"/>
    <path fill-rule="evenodd" clip-rule="evenodd" d="M9.97 7.72a.75.75 0 0 1 1.06 0l3.75 3.75a.75.75 0 0 1 0 1.06l-3.75 3.75a.75.75 0 1 1-1.06-1.06L13.19 12 9.97 8.78a.75.75 0 0 1 0-1.06z" fill="#0958A5"/>
</svg>
