<svg width="32" height="32" viewBox="0 0 32 32" fill="none" xmlns="http://www.w3.org/2000/svg">
    <g clip-path="url(#38ulhj9xsa)">
        <path fill-rule="evenodd" clip-rule="evenodd" d="m18.46 6.472-3.755 3.748a1 1 0 1 1-1.413-1.416l3.762-3.755a7 7 0 0 1 9.9 9.9l-.007.006-3.757 3.751a1 1 0 0 1-1.413-1.415l3.754-3.748a5 5 0 0 0-7.072-7.07zm2.245 4.82a1 1 0 0 1 0 1.413l-8 8a1 1 0 0 1-1.414-1.414l8-8a1 1 0 0 1 1.414 0zM10.218 13.29a1 1 0 0 1 .002 1.415l-3.748 3.754a5 5 0 0 0 7.07 7.072l3.749-3.754a1 1 0 0 1 1.415 1.413l-3.758 3.764a7 7 0 0 1-9.899-9.9l.005-.005 3.75-3.757a1 1 0 0 1 1.414-.002z" fill="#0958A5"/>
    </g>
    <defs>
        <clipPath id="38ulhj9xsa">
            <path fill="#fff" d="M0 0h32v32H0z"/>
        </clipPath>
    </defs>
</svg>
