<svg width="32" height="32" viewBox="0 0 32 32" fill="none" xmlns="http://www.w3.org/2000/svg">
<g clip-path="url(#clip0_4318_22081)">
<path fill-rule="evenodd" clip-rule="evenodd" d="M18.4595 6.47244L14.7047 10.2198C14.3137 10.61 13.6806 10.6093 13.2904 10.2184C12.9003 9.8275 12.9009 9.19433 13.2919 8.8042L17.0544 5.04915C18.3708 3.75406 20.1456 3.0316 21.9922 3.03912C23.8388 3.04664 25.6077 3.78354 26.9135 5.08931C28.2192 6.39509 28.9561 8.16393 28.9637 10.0106C28.9712 11.8572 28.2487 13.632 26.9536 14.9483L26.9473 14.9547L23.1898 18.706C22.7989 19.0962 22.1658 19.0956 21.7756 18.7048C21.3854 18.3139 21.3859 17.6808 21.7767 17.2906L25.531 13.5426C26.4541 12.6026 26.969 11.3363 26.9637 10.0187C26.9583 8.69969 26.4319 7.43622 25.4992 6.50353C24.5665 5.57083 23.3031 5.04447 21.9841 5.0391C20.6662 5.03374 19.3995 5.54889 18.4595 6.47244ZM20.7054 11.2912C21.0959 11.6817 21.0959 12.3148 20.7054 12.7054L12.7054 20.7054C12.3148 21.0959 11.6817 21.0959 11.2912 20.7054C10.9006 20.3148 10.9006 19.6817 11.2912 19.2912L19.2912 11.2912C19.6817 10.9006 20.3148 10.9006 20.7054 11.2912ZM10.2184 13.2904C10.6093 13.6806 10.61 14.3137 10.2198 14.7047L6.47244 18.4595C5.54889 19.3995 5.03374 20.6662 5.0391 21.9841C5.04447 23.3031 5.57083 24.5665 6.50353 25.4992C7.43622 26.4319 8.69969 26.9583 10.0187 26.9637C11.3363 26.969 12.6026 26.4541 13.5426 25.531L17.2906 21.7767C17.6808 21.3859 18.3139 21.3854 18.7048 21.7756C19.0956 22.1658 19.0962 22.7989 18.706 23.1898L14.9484 26.9536C13.632 28.2487 11.8572 28.9712 10.0106 28.9637C8.16393 28.9561 6.39509 28.2192 5.08931 26.9135C3.78354 25.6077 3.04664 23.8388 3.03912 21.9922C3.0316 20.1456 3.75408 18.3708 5.04917 17.0544L5.05418 17.0493L8.8042 13.2919C9.19433 12.9009 9.8275 12.9003 10.2184 13.2904Z" fill="#052E55"/>
</g>
<defs>
<clipPath id="clip0_4318_22081">
<rect width="32" height="32" fill="white"/>
</clipPath>
</defs>
</svg>
