<svg width="24" height="24" viewBox="0 0 24 24" fill="none" xmlns="http://www.w3.org/2000/svg">
<g clip-path="url(#clip0_2064_62752)">
<path fill-rule="evenodd" clip-rule="evenodd" d="M2.25 13.5C2.66421 13.5 3 13.8358 3 14.25V20.625C3 20.7747 3.04832 20.8924 3.09873 20.9563C3.12108 20.9847 3.13861 20.9963 3.14522 21H20.8548C20.8614 20.9963 20.8789 20.9847 20.9013 20.9563C20.9517 20.8924 21 20.7747 21 20.625L21 14.25C21 13.8358 21.3358 13.5 21.75 13.5C22.1642 13.5 22.5 13.8358 22.5 14.25L22.5 20.625C22.5 21.072 22.3616 21.5267 22.0795 21.8847C21.794 22.247 21.3632 22.5 20.8636 22.5H3.13636C2.63682 22.5 2.20599 22.247 1.92049 21.8847C1.63845 21.5267 1.5 21.072 1.5 20.625V14.25C1.5 13.8358 1.83579 13.5 2.25 13.5Z" fill="black"/>
<path d="M12.75 2.25C12.75 1.83579 12.4142 1.5 12 1.5C11.5858 1.5 11.25 1.83579 11.25 2.25V13.9393L8.03033 10.7197C7.73744 10.4268 7.26256 10.4268 6.96967 10.7197C6.67678 11.0126 6.67678 11.4874 6.96967 11.7803L11.4697 16.2803C11.5416 16.3522 11.6245 16.4065 11.7129 16.4431C11.8 16.4792 11.8954 16.4994 11.9955 16.5L12 16.5L12.0045 16.5C12.1949 16.4989 12.385 16.4256 12.5303 16.2803L17.0303 11.7803C17.3232 11.4874 17.3232 11.0126 17.0303 10.7197C16.7374 10.4268 16.2626 10.4268 15.9697 10.7197L12.75 13.9393V2.25Z" fill="#222222"/>
</g>
<defs>
<clipPath id="clip0_2064_62752">
<rect width="24" height="24" fill="white"/>
</clipPath>
</defs>
</svg>
