<svg width="21" height="20" viewBox="0 0 21 20" fill="none" xmlns="http://www.w3.org/2000/svg">
    <path d="M10.5 2.625a.5.5 0 0 1 .5.5v7.543l2.271-2.272a.5.5 0 0 1 .708.708l-3.125 3.125a.5.5 0 0 1-.351.146h-.006a.499.499 0 0 1-.35-.146L7.02 9.104a.5.5 0 1 1 .708-.708L10 10.668V3.125a.5.5 0 0 1 .5-.5z" fill="#FAFAFA"/>
    <path d="M3.625 11.375a.5.5 0 0 1 .5.5v4.375a.125.125 0 0 0 .125.125h12.5a.125.125 0 0 0 .125-.125v-4.375a.5.5 0 0 1 1 0v4.375a1.125 1.125 0 0 1-1.125 1.125H4.25a1.125 1.125 0 0 1-1.125-1.125v-4.375a.5.5 0 0 1 .5-.5z" fill="#FAFAFA"/>
</svg>
