<svg width="20" height="20" viewBox="0 0 20 20" fill="none" xmlns="http://www.w3.org/2000/svg">
    <g clip-path="url(#t8pi1k1nca)" fill="#0958a5">
        <path fill-rule="evenodd" clip-rule="evenodd" d="M1.875 11.25c.345 0 .625.28.625.625v5.313c0 .124.04.222.082.276a.14.14 0 0 0 .039.036h14.758a.14.14 0 0 0 .039-.036.458.458 0 0 0 .082-.276v-5.313a.625.625 0 1 1 1.25 0v5.313c0 .372-.115.75-.35 1.05a1.293 1.293 0 0 1-1.014.512H2.614c-.417 0-.776-.21-1.014-.513a1.703 1.703 0 0 1-.35-1.05v-5.312c0-.345.28-.625.625-.625z"/>
        <path d="M10.625 1.875a.625.625 0 1 0-1.25 0v9.741L6.692 8.933a.625.625 0 1 0-.884.884l3.75 3.75a.622.622 0 0 0 .438.183h.008a.623.623 0 0 0 .438-.183l3.75-3.75a.625.625 0 1 0-.884-.884l-2.683 2.683V1.875z"/>
    </g>
    <defs>
        <clipPath id="t8pi1k1nca">
            <path fill="#fff" d="M0 0h20v20H0z"/>
        </clipPath>
    </defs>
</svg>
