<svg width="24" height="24" viewBox="0 0 24 24" fill="none" xmlns="http://www.w3.org/2000/svg">
    <g clip-path="url(#vd8ddu2mea)" fill="#0958A5">
        <path fill-rule="evenodd" clip-rule="evenodd" d="M2.25 13.5a.75.75 0 0 1 .75.75v6.375c0 .15.048.267.099.331.022.029.04.04.046.044h17.71a.17.17 0 0 0 .046-.044.55.55 0 0 0 .099-.331V14.25a.75.75 0 0 1 1.5 0v6.375c0 .447-.138.902-.42 1.26-.286.362-.717.615-1.216.615H3.136c-.5 0-.93-.253-1.216-.615a2.043 2.043 0 0 1-.42-1.26V14.25a.75.75 0 0 1 .75-.75z"/>
        <path d="M12.75 2.25a.75.75 0 0 0-1.5 0v11.69l-3.22-3.22a.75.75 0 0 0-1.06 1.06l4.5 4.5a.748.748 0 0 0 .525.22h.01a.748.748 0 0 0 .525-.22l4.5-4.5a.75.75 0 1 0-1.06-1.06l-3.22 3.22V2.25z"/>
    </g>
    <defs>
        <clipPath id="vd8ddu2mea">
            <path fill="#fff" d="M0 0h24v24H0z"/>
        </clipPath>
    </defs>
</svg>
