<svg width="20" height="20" viewBox="0 0 20 20" fill="none" xmlns="http://www.w3.org/2000/svg">
    <g clip-path="url(#4rbo8hym7a)">
        <path fill-rule="evenodd" clip-rule="evenodd" d="M11.25 3.125c0-.345.28-.625.625-.625h4.969a.623.623 0 0 1 .655.656l.001 4.969a.625.625 0 1 1-1.25 0v-3.49l-5.183 5.182a.625.625 0 1 1-.884-.884l5.183-5.182-3.491-.001a.625.625 0 0 1-.625-.625zM3.75 5A1.25 1.25 0 0 0 2.5 6.25v10a1.25 1.25 0 0 0 1.25 1.25h10A1.25 1.25 0 0 0 15 16.25v-5.625a.625.625 0 1 0-1.25 0v5.625h-10v-10h5.625a.625.625 0 1 0 0-1.25H3.75z" fill="#fff"/>
    </g>
    <defs>
        <clipPath id="4rbo8hym7a">
            <path fill="#fff" d="M0 0h20v20H0z"/>
        </clipPath>
    </defs>
</svg>
