<svg width="20" height="20" viewBox="0 0 20 20" fill="none" xmlns="http://www.w3.org/2000/svg">
    <path d="M11.375 3.125a.5.5 0 0 1 .5-.5h4.972a.499.499 0 0 1 .527.528l.001 4.972a.5.5 0 0 1-1 0V4.333l-5.396 5.396a.5.5 0 0 1-.708-.708l5.396-5.395-3.792-.001a.5.5 0 0 1-.5-.5z" fill="#FFD300"/>
    <path d="M3.662 6.162a.125.125 0 0 1 .088-.037h5.625a.5.5 0 0 0 0-1H3.75A1.125 1.125 0 0 0 2.625 6.25v10a1.125 1.125 0 0 0 1.125 1.125h10a1.125 1.125 0 0 0 1.125-1.125v-5.625a.5.5 0 0 0-1 0v5.625a.125.125 0 0 1-.125.125h-10a.125.125 0 0 1-.125-.125v-10c0-.033.013-.065.037-.088z" fill="#FFD300"/>
</svg>
