<svg width="32" height="32" viewBox="0 0 32 32" fill="none" xmlns="http://www.w3.org/2000/svg">
    <path fill-rule="evenodd" clip-rule="evenodd" d="M16 13a3 3 0 1 0 0 6 3 3 0 0 0 0-6zm-5 3a5 5 0 1 1 10 0 5 5 0 0 1-10 0zM22.041 9.255a1 1 0 0 1 1.413.078 9.992 9.992 0 0 1 0 13.334 1 1 0 0 1-1.49-1.334 7.992 7.992 0 0 0 0-10.666 1 1 0 0 1 .078-1.412zM9.958 9.255a1 1 0 0 1 .078 1.412 7.992 7.992 0 0 0 0 10.666 1 1 0 0 1-1.49 1.334 9.993 9.993 0 0 1 0-13.334 1 1 0 0 1 1.412-.078z" fill="#222"/>
    <path fill-rule="evenodd" clip-rule="evenodd" d="M25.3 5.49a1 1 0 0 1 1.413.012 14.985 14.985 0 0 1 0 20.996 1 1 0 1 1-1.427-1.4 12.985 12.985 0 0 0 0-18.195A1 1 0 0 1 25.3 5.49zM6.7 5.49a1 1 0 0 1 .014 1.413 12.985 12.985 0 0 0 0 18.194 1 1 0 1 1-1.428 1.401 14.985 14.985 0 0 1 0-20.996 1 1 0 0 1 1.415-.013z" fill="#222"/>
</svg>
