<svg width="32" height="32" viewBox="0 0 32 32" fill="none" xmlns="http://www.w3.org/2000/svg">
    <path fill-rule="evenodd" clip-rule="evenodd" d="M3.5 19a1 1 0 0 1 1-1h2a4.5 4.5 0 1 1 0 9h-2a1 1 0 0 1-1-1v-7zm2 1v5h1a2.5 2.5 0 0 0 0-5h-1zM24.994 20c-.964.004-1.994.973-1.994 2.5 0 1.527 1.03 2.496 1.994 2.5a1.764 1.764 0 0 0 1.27-.569 1 1 0 1 1 1.471 1.355A3.765 3.765 0 0 1 25.012 27H25c-2.35 0-4-2.166-4-4.5s1.65-4.5 4-4.5h.012a3.764 3.764 0 0 1 2.723 1.214 1 1 0 1 1-1.47 1.355 1.767 1.767 0 0 0-1.27-.569zM5.586 3.586A2 2 0 0 1 7 3h12a1 1 0 0 1 .707.293l7 7A1 1 0 0 1 27 11v3a1 1 0 1 1-2 0v-2.586L18.586 5H7v9a1 1 0 1 1-2 0V5a2 2 0 0 1 .586-1.414z" fill="#222"/>
    <path fill-rule="evenodd" clip-rule="evenodd" d="M19 3a1 1 0 0 1 1 1v6h6a1 1 0 1 1 0 2h-7a1 1 0 0 1-1-1V4a1 1 0 0 1 1-1zM16 20c-.966 0-2 .97-2 2.5s1.034 2.5 2 2.5c.965 0 2-.97 2-2.5S16.965 20 16 20zm-4 2.5c0-2.335 1.652-4.5 4-4.5s4 2.165 4 4.5-1.652 4.5-4 4.5-4-2.165-4-4.5z" fill="#222"/>
</svg>
