<svg width="32" height="32" viewBox="0 0 32 32" fill="none" xmlns="http://www.w3.org/2000/svg">
    <path fill-rule="evenodd" clip-rule="evenodd" d="M19 3a1 1 0 0 1 1 1v6h6a1 1 0 1 1 0 2h-7a1 1 0 0 1-1-1V4a1 1 0 0 1 1-1zM17.293 15.293a1 1 0 0 1 1.414 0l3 3a1 1 0 0 1 0 1.414l-3 3a1 1 0 0 1-1.414-1.414L19.586 19l-2.293-2.293a1 1 0 0 1 0-1.414zM14.707 15.293a1 1 0 0 1 0 1.414L12.414 19l2.293 2.293a1 1 0 0 1-1.414 1.414l-3-3a1 1 0 0 1 0-1.414l3-3a1 1 0 0 1 1.414 0z" fill="#222"/>
    <path fill-rule="evenodd" clip-rule="evenodd" d="M5.586 3.586A2 2 0 0 1 7 3h12a1 1 0 0 1 .707.293l7 7A1 1 0 0 1 27 11v16a2 2 0 0 1-2 2H7a2 2 0 0 1-2-2V5a2 2 0 0 1 .586-1.414zm13 1.414H7v22h18V11.414L18.586 5z" fill="#222"/>
</svg>
