<svg width="32" height="32" viewBox="0 0 32 32" fill="none" xmlns="http://www.w3.org/2000/svg">
    <path fill-rule="evenodd" clip-rule="evenodd" d="M16 5C9.925 5 5 9.925 5 16c0 2.79 1.038 5.336 2.75 7.276a1 1 0 0 1-1.5 1.323A12.954 12.954 0 0 1 3 16C3 8.82 8.82 3 16 3s13 5.82 13 13c0 3.296-1.228 6.308-3.25 8.6a1 1 0 1 1-1.5-1.324A10.955 10.955 0 0 0 27 16c0-6.075-4.925-11-11-11z" fill="#222"/>
    <path fill-rule="evenodd" clip-rule="evenodd" d="M16 10a6 6 0 0 0-4.715 9.711 1 1 0 0 1-1.57 1.239 8 8 0 1 1 12.57 0 1 1 0 0 1-1.57-1.239A6 6 0 0 0 16 10z" fill="#222"/>
    <path fill-rule="evenodd" clip-rule="evenodd" d="M16 16a1 1 0 0 1 1 1v12a1 1 0 1 1-2 0V17a1 1 0 0 1 1-1z" fill="#222"/>
    <path d="M18.5 16a2.5 2.5 0 1 1-5 0 2.5 2.5 0 0 1 5 0z" fill="#222"/>
</svg>
