<svg width="32" height="32" viewBox="0 0 32 32" fill="none" xmlns="http://www.w3.org/2000/svg">
    <path fill-rule="evenodd" clip-rule="evenodd" d="M3.586 5.586A2 2 0 0 1 5 5h22a2 2 0 0 1 2 2v18a2 2 0 0 1-2 2h-9a1 1 0 1 1 0-2h9V7H5v5a1 1 0 1 1-2 0V7a2 2 0 0 1 .586-1.414zM3 24a1 1 0 0 1 1-1 3 3 0 0 1 3 3 1 1 0 1 1-2 0 1 1 0 0 0-1-1 1 1 0 0 1-1-1z" fill="#222"/>
    <path fill-rule="evenodd" clip-rule="evenodd" d="M3 20a1 1 0 0 1 1-1 7 7 0 0 1 7 7 1 1 0 1 1-2 0 5 5 0 0 0-5-5 1 1 0 0 1-1-1z" fill="#222"/>
    <path fill-rule="evenodd" clip-rule="evenodd" d="M3 16a1 1 0 0 1 1-1 11 11 0 0 1 11 11 1 1 0 1 1-2 0 9 9 0 0 0-9-9 1 1 0 0 1-1-1z" fill="#222"/>
</svg>
