<svg width="32" height="32" viewBox="0 0 32 32" fill="none" xmlns="http://www.w3.org/2000/svg">
    <g clip-path="url(#bxy4cewppa)" stroke="#222" stroke-width="2" stroke-linecap="round" stroke-linejoin="round">
        <path d="M24.171 25.857h1.886c.25 0 .49-.101.667-.281a.97.97 0 0 0 .276-.68V8.5a1 1 0 0 0-.287-.7l-4.899-4.99H9.086c-.25 0-.49.1-.667.28a.97.97 0 0 0-.276.68v1.625"/>
        <path d="M22.914 29H5.943a.934.934 0 0 1-.667-.281.97.97 0 0 1-.276-.68V6.914c0-.255.1-.5.276-.68a.934.934 0 0 1 .667-.28h11.314l6.6 6.722V28.04a.97.97 0 0 1-.276.679.934.934 0 0 1-.667.281z"/>
        <path d="m17.646 17.327-5.837 5.836-2.431-2.432L5 25.11"/>
        <path d="M17.646 21.218v-3.891h-3.89M17.646 6.476v5.987h5.687"/>
    </g>
    <defs>
        <clipPath id="bxy4cewppa">
            <path fill="#fff" d="M0 0h32v32H0z"/>
        </clipPath>
    </defs>
</svg>
