<svg width="32" height="32" viewBox="0 0 32 32" fill="none" xmlns="http://www.w3.org/2000/svg">
<g clip-path="url(#clip0_4318_22211)">
<path fill-rule="evenodd" clip-rule="evenodd" d="M3 7C3 6.44772 3.44772 6 4 6H28C28.5523 6 29 6.44772 29 7V24C29 24.5304 28.7893 25.0391 28.4142 25.4142C28.0391 25.7893 27.5304 26 27 26H5C4.46957 26 3.96086 25.7893 3.58579 25.4142C3.21071 25.0391 3 24.5304 3 24V7ZM6.5708 8L16 16.6434L25.4292 8H6.5708ZM27 9.27323L17.3514 18.1177C16.5868 18.8187 15.4132 18.8187 14.6486 18.1177L5 9.27324V24H27V9.27323Z" fill="#052E55"/>
</g>
<defs>
<clipPath id="clip0_4318_22211">
<rect width="32" height="32" fill="white"/>
</clipPath>
</defs>
</svg>
