<svg width="32" height="32" viewBox="0 0 32 32" fill="none" xmlns="http://www.w3.org/2000/svg">
    <g clip-path="url(#e64z2bx7xa)">
        <path fill-rule="evenodd" clip-rule="evenodd" d="M3 7a1 1 0 0 1 1-1h24a1 1 0 0 1 1 1v17a2 2 0 0 1-2 2H5a2 2 0 0 1-2-2V7zm3.57 1L16 16.643 25.43 8H6.57zM27 9.273l-9.649 8.845a2 2 0 0 1-2.702 0L5 9.273V24h22V9.273z" fill="#0958A5"/>
    </g>
    <defs>
        <clipPath id="e64z2bx7xa">
            <path fill="#fff" d="M0 0h32v32H0z"/>
        </clipPath>
    </defs>
</svg>
