<svg width="32" height="32" viewBox="0 0 32 32" fill="none" xmlns="http://www.w3.org/2000/svg">
    <rect width="32" height="32" rx="16" fill="#0958A5"/>
    <path fill-rule="evenodd" clip-rule="evenodd" d="M22.842 8H9.207C8.554 8 8 8.516 8 9.152v13.696C8 23.484 8.363 24 9.015 24h13.636c.653 0 1.349-.516 1.349-1.152V9.152C24 8.517 23.494 8 22.842 8zm-8.747 6.095h2.154v1.099h.024C16.602 14.602 17.572 14 18.77 14c2.303 0 2.944 1.223 2.944 3.486v4.23h-2.286v-3.813c0-1.012-.405-1.902-1.351-1.902-1.15 0-1.697.777-1.697 2.055v3.66h-2.286v-7.62h.001zm-3.809 7.62h2.286v-7.618h-2.286v7.618zm2.57-10.285a1.427 1.427 0 1 1-2.856 0 1.427 1.427 0 1 1 2.857 0z" fill="#fff"/>
</svg>
