<svg width="32" height="32" viewBox="0 0 32 32" fill="none" xmlns="http://www.w3.org/2000/svg">
<rect width="32" height="32" rx="16" fill="#052E55"/>
<path fill-rule="evenodd" clip-rule="evenodd" d="M22.8416 8H9.20651C8.55449 8 8 8.51574 8 9.15173V22.8483C8 23.4843 8.36342 24 9.01545 24H22.6505C23.3039 24 24 23.4843 24 22.8483V9.15173C24 8.51708 23.4936 8 22.8416 8ZM14.0954 14.0954H16.2492V15.1937H16.2732C16.6019 14.6018 17.5719 14.0005 18.7704 14.0005C21.0726 14.0005 21.7139 15.223 21.7139 17.4864V21.7152H19.4278V17.9033C19.4278 16.8905 19.023 16.0007 18.077 16.0007C16.9279 16.0007 16.3801 16.7783 16.3801 18.0556V21.7152H14.094V14.0954H14.0954ZM10.2861 21.7152H12.5722V14.0967H10.2861V21.7152ZM12.8568 11.4298C12.8568 12.2195 12.2181 12.8581 11.4285 12.8581C10.6388 12.8581 10.0002 12.2195 10.0002 11.4298C10.0002 10.6402 10.6388 10.0015 11.4285 10.0015C12.2181 10.0015 12.8568 10.6402 12.8568 11.4298Z" fill="white"/>
</svg>
