<svg width="24" height="24" viewBox="0 0 24 24" fill="none" xmlns="http://www.w3.org/2000/svg">
    <path d="M2.25 12a.75.75 0 0 1 .75-.75h10.94l-3.22-3.22a.75.75 0 0 1 1.06-1.06l4.5 4.5a.748.748 0 0 1 0 1.06l-4.5 4.5a.75.75 0 1 1-1.06-1.06l3.22-3.22H3a.75.75 0 0 1-.75-.75z" fill="#FFD300"/>
    <path d="M4.431 8.135C5.835 5.088 8.836 3 12.295 3 17.081 3 21 7.008 21 12s-3.919 9-8.705 9c-3.459 0-6.46-2.088-7.864-5.135a.75.75 0 0 0-1.362.627C4.7 20.033 8.21 22.5 12.295 22.5 17.953 22.5 22.5 17.777 22.5 12S17.953 1.5 12.295 1.5C8.21 1.5 4.7 3.967 3.069 7.508a.75.75 0 0 0 1.362.627z" fill="#FFD300"/>
</svg>
