<svg width="88" height="88" viewBox="0 0 88 88" fill="none" xmlns="http://www.w3.org/2000/svg">
    <path fill-rule="evenodd" clip-rule="evenodd" d="M44 88C19.7 88 0 68.3 0 44S19.7 0 44 0s44 19.7 44 44-19.7 44-44 44zm0-84.174C21.813 3.826 3.826 21.813 3.826 44S21.813 84.174 44 84.174 84.174 66.187 84.174 44 66.187 3.826 44 3.826z" fill="#E9BF04"/>
    <rect x="5.739" y="5.739" width="76.522" height="76.522" rx="38.261" fill="#E9BF04"/>
    <path d="M40.817 33.722 53.455 43.2a1 1 0 0 1 0 1.6l-12.638 9.478a1 1 0 0 1-1.6-.8V34.522a1 1 0 0 1 1.6-.8z" fill="#040832"/>
</svg>
