<svg width="40" height="40" viewBox="0 0 40 40" fill="none" xmlns="http://www.w3.org/2000/svg">
    <path fill-rule="evenodd" clip-rule="evenodd" d="M20 3.75C11.025 3.75 3.75 11.025 3.75 20c0 4.247 1.628 8.11 4.295 11.007A1.25 1.25 0 1 1 6.206 32.7 18.687 18.687 0 0 1 1.25 20C1.25 9.645 9.645 1.25 20 1.25S38.75 9.645 38.75 20c0 4.899-1.88 9.361-4.956 12.7a1.25 1.25 0 0 1-1.84-1.693A16.187 16.187 0 0 0 36.25 20c0-8.975-7.275-16.25-16.25-16.25z" fill="#0958A5"/>
    <path fill-rule="evenodd" clip-rule="evenodd" d="M19.626 11.25a8.75 8.75 0 0 0-8.75 8.75 8.71 8.71 0 0 0 2.495 6.12 1.25 1.25 0 1 1-1.787 1.748A11.21 11.21 0 0 1 8.375 20c0-6.213 5.037-11.25 11.25-11.25 6.214 0 11.25 5.037 11.25 11.25a11.21 11.21 0 0 1-3.208 7.868 1.25 1.25 0 1 1-1.787-1.749A8.71 8.71 0 0 0 28.375 20a8.75 8.75 0 0 0-8.75-8.749z" fill="#0958A5"/>
    <path d="M20.876 23.537a3.752 3.752 0 0 0-1.25-7.287 3.75 3.75 0 0 0-1.25 7.287V37.5a1.25 1.25 0 1 0 2.5 0V23.537z" fill="#0958A5"/>
</svg>
