<svg width="21" height="20" viewBox="0 0 21 20" fill="none" xmlns="http://www.w3.org/2000/svg">
    <path fill-rule="evenodd" clip-rule="evenodd" d="M14.25 12.625c-.879 0-1.67.378-2.218.98L8.26 11.179c.155-.362.241-.76.241-1.179a2.99 2.99 0 0 0-.24-1.18l3.772-2.425a3 3 0 1 0-.541-.84L7.718 7.98a3 3 0 1 0 0 4.04l3.773 2.425a3 3 0 1 0 2.76-1.82zm-2 3a2 2 0 1 0 4 0 2 2 0 0 0-4 0zM7.197 8.941a.51.51 0 0 1-.029-.045 2 2 0 1 0 .029.045zm5.355-3.508a2 2 0 1 1 3.396-2.115 2 2 0 0 1-3.396 2.115z" fill="#FAFAFA"/>
</svg>
