<svg width="32" height="32" viewBox="0 0 32 32" fill="none" xmlns="http://www.w3.org/2000/svg">
    <path fill-rule="evenodd" clip-rule="evenodd" d="M22 12a4.985 4.985 0 0 1-3.58-1.51l-5.757 3.701c.218.561.337 1.171.337 1.809 0 .638-.12 1.248-.337 1.809l5.757 3.7a5 5 0 1 1-1.083 1.682l-5.757-3.7a5 5 0 1 1 0-6.98l5.757-3.702A5 5 0 1 1 22 12zm-3-5a3 3 0 1 1 6 0 3 3 0 0 1-6 0zm-8.451 10.583a.999.999 0 0 0-.05.078 3 3 0 1 1 .05-.078zm8.901 5.836a3 3 0 1 0 5.1 3.163 3 3 0 0 0-5.1-3.163z" fill="#FFD300"/>
</svg>
