<svg width="20" height="20" viewBox="0 0 20 20" fill="none" xmlns="http://www.w3.org/2000/svg">
    <g clip-path="url(#7v0as4uvoa)">
        <path fill-rule="evenodd" clip-rule="evenodd" d="M18.75 4.488a3.125 3.125 0 0 1-5.867 1.5l-5.469 3.28a3.133 3.133 0 0 1-.017 1.532l5.772 3.006a3.125 3.125 0 1 1-.561 1.117L6.84 11.92a3.125 3.125 0 1 1 .04-3.789l5.63-3.378a3.125 3.125 0 1 1 6.239-.265zm-3.125 1.875a1.875 1.875 0 1 0 0-3.75 1.875 1.875 0 0 0 0 3.75zM4.375 8.125a1.875 1.875 0 1 0 0 3.75 1.875 1.875 0 0 0 0-3.75zM17.5 15.738a1.875 1.875 0 1 1-3.75 0 1.875 1.875 0 0 1 3.75 0z" fill="#0958a5"/>
    </g>
    <defs>
        <clipPath id="7v0as4uvoa">
            <path fill="#fff" d="M0 0h20v20H0z"/>
        </clipPath>
    </defs>
</svg>
