<svg width="24" height="24" viewBox="0 0 24 24" fill="none" xmlns="http://www.w3.org/2000/svg">
    <g clip-path="url(#pxypz5ypua)">
        <path fill-rule="evenodd" clip-rule="evenodd" d="M10.558 3a.75.75 0 0 0-.659.391l-3.808 6.987a.756.756 0 0 0-.053.122H2.893c-.383 0-.741.16-.999.433-.256.27-.394.629-.394.995v7.644c0 .366.138.725.394.995.258.272.616.433.999.433h16.249c.55 0 1.091-.18 1.522-.52.433-.343.73-.83.806-1.381l1.011-8.618c.043-.317.011-.638-.092-.94a2.152 2.152 0 0 0-.504-.809 2.35 2.35 0 0 0-.794-.528 2.506 2.506 0 0 0-.94-.182h-5.645V6.62c0-.988-.438-1.917-1.186-2.588C12.575 3.364 11.58 3 10.558 3zM7.5 19.5h11.641a.959.959 0 0 0 .592-.197.649.649 0 0 0 .25-.406l1.011-8.615a.545.545 0 0 0-.024-.254.653.653 0 0 0-.155-.245.85.85 0 0 0-.288-.189 1.006 1.006 0 0 0-.376-.072h-6.395a.75.75 0 0 1-.75-.75V6.62c0-.535-.236-1.066-.688-1.471a2.587 2.587 0 0 0-1.332-.616L7.5 10.928V19.5zm-4.5 0V12h3v7.5H3z" fill="#fff"/>
    </g>
    <defs>
        <clipPath id="pxypz5ypua">
            <path fill="#fff" d="M0 0h24v24H0z"/>
        </clipPath>
    </defs>
</svg>
